<?xml version="1.0" encoding="UTF-8" standalone="no"?>
<svg
   xmlns:svg="http://www.w3.org/2000/svg"
   xmlns="http://www.w3.org/2000/svg"
   id="svg8"
   version="1.1"
   viewBox="0 0 26.458333 26.458335"
   height="26.458336mm"
   width="26.458334mm">
  <defs id="defs2" />
  <g style="display:inline" transform="translate(-95.290094,-69.663595)" id="layer1">
    <g id="layer1-38" transform="translate(2.0587339,0.01001516)">
      <g id="g410" transform="matrix(0.550641,0,0,0.550641,93.23136,69.681145)">
        <g transform="matrix(1.7193825,0,0,1.7193825,-2.2919369,-3.0089169)" style="fill:#ffffff" id="Layer_3-3">
          <path id="path239-5" d="M 29.25,29.667 H 1.333 V 1.7208835 h 27.946114 z" style="fill:#ffffff" />
        </g>
        <g transform="matrix(1.7193825,0,0,1.7193825,-2.2919369,-3.0089169)" id="Layer_1" />
        <g transform="matrix(0.25035983,0,0,0.25035983,0,-0.05006001)" style="fill:#000080" id="g3179" />
        <g id="g3104" style="fill:#ffffff" transform="matrix(1.7193825,0,0,1.7193825,-2.2919369,-3.0089169)" />
        <g id="g3108" transform="matrix(1.7193825,0,0,1.7193825,-2.2919369,-3.0089169)" />
        <g id="g3110" style="fill:#000080" transform="matrix(0.25035983,0,0,0.25035983,0,-0.05006001)">
          <path id="path3112" d="M 1.2606827e-6,3.3726963e-7 V 191.924 H 191.924 V 3.3726963e-7 Z M 14.390791,14.39424 H 177.52619 V 177.52963 H 14.390791 Z" style="fill:#3d3d8b;fill-opacity:1" />
        </g>
      </g>
    </g>
    <path d="m 105.97478,88.717706 c -0.19809,-0.06901 -0.26503,-0.225558 -0.24598,-0.57523 0.0334,-0.613252 0.50338,-1.54797 0.94701,-1.883537 0.30784,-0.23286 0.54066,-0.2612 0.95107,-0.11578 0.56081,0.198719 1.22446,0.772971 1.44509,1.250427 0.063,0.136203 0.0759,0.324285 0.0295,0.427211 -0.0427,0.09464 -0.26004,0.281583 -0.40423,0.34766 -0.15611,0.07155 -0.24625,0.07956 -0.59775,0.0533 -0.37825,-0.02825 -0.43527,-0.01824 -0.71395,0.124897 -0.10919,0.05611 -0.20682,0.108581 -0.21695,0.116626 -0.0476,0.03771 -0.45867,0.210169 -0.59602,0.250005 -0.19925,0.05778 -0.43951,0.05954 -0.59782,0.0045 z m -0.8533,-1.587121 c -0.33139,-0.08417 -0.64303,-0.377915 -0.78128,-0.736387 -0.0756,-0.196136 -0.0834,-0.428933 -0.0192,-0.573815 0.074,-0.166977 0.2329,-0.286527 0.41753,-0.314213 0.25008,-0.03749 0.63353,0.162389 0.85492,0.445642 0.28837,0.368962 0.31679,0.849367 0.0635,1.072368 -0.12662,0.111453 -0.34483,0.154825 -0.53543,0.106418 z m 3.61056,-0.5703 c -0.2368,-0.08931 -0.38953,-0.350117 -0.40772,-0.696196 -0.0175,-0.332893 0.0975,-0.650595 0.31527,-0.871377 0.155,-0.157109 0.29142,-0.222362 0.46287,-0.221406 0.1554,8.47e-4 0.2425,0.04065 0.35405,0.161659 0.15711,0.170451 0.21563,0.362227 0.20335,0.666413 -0.0129,0.317064 -0.1161,0.564357 -0.32475,0.77747 -0.17619,0.179953 -0.41761,0.253394 -0.60307,0.183447 z m -2.72372,-0.914001 c -0.28071,-0.07001 -0.55608,-0.327942 -0.71527,-0.669981 -0.0928,-0.199385 -0.13084,-0.370899 -0.13141,-0.592484 -4.8e-4,-0.189226 0.003,-0.210602 0.057,-0.323937 0.0611,-0.128929 0.15359,-0.234895 0.25129,-0.287864 0.0425,-0.02305 0.1018,-0.03236 0.20729,-0.03256 0.21191,-3.7e-4 0.3492,0.06903 0.56421,0.285219 0.13294,0.133669 0.17331,0.189034 0.24313,0.33338 0.12451,0.257434 0.16577,0.438852 0.15439,0.678749 -0.0118,0.248313 -0.0478,0.346216 -0.17433,0.473344 -0.13136,0.132018 -0.28679,0.178399 -0.45628,0.136126 z m 1.34448,-0.33375 c -0.10449,-0.0521 -0.23703,-0.189073 -0.30333,-0.313465 -0.23524,-0.441351 -0.14776,-1.149923 0.18327,-1.484447 0.12016,-0.121424 0.2344,-0.17719 0.38253,-0.186711 0.0967,-0.0062 0.13123,4.76e-4 0.21575,0.04183 0.26203,0.128199 0.42248,0.467877 0.42247,0.894362 -1e-5,0.308998 -0.063,0.54765 -0.20192,0.764778 -0.17388,0.271827 -0.4763,0.394586 -0.69877,0.28365 z m -5.89782,-0.151407 c -0.19809,-0.06901 -0.26503,-0.225558 -0.24598,-0.57523 0.0334,-0.613252 0.50338,-1.54797 0.94701,-1.883537 0.30785,-0.23286 0.54066,-0.2612 0.95107,-0.11578 0.56081,0.198719 1.22446,0.772971 1.44509,1.250427 0.063,0.136203 0.076,0.324285 0.0295,0.427211 -0.0427,0.09464 -0.26004,0.281583 -0.40423,0.34766 -0.15611,0.07155 -0.24626,0.07956 -0.59776,0.0533 -0.37824,-0.02825 -0.43526,-0.01824 -0.71394,0.124897 -0.10919,0.05611 -0.20682,0.108581 -0.21695,0.116626 -0.0476,0.03771 -0.45868,0.210169 -0.59602,0.250005 -0.19925,0.05778 -0.43952,0.05954 -0.59783,0.0045 z m -0.8533,-1.587121 c -0.33139,-0.08417 -0.643033,-0.377915 -0.781274,-0.736387 -0.07564,-0.196136 -0.08343,-0.428933 -0.0192,-0.573815 0.07403,-0.166977 0.232884,-0.286527 0.417514,-0.314213 0.25009,-0.03749 0.63354,0.162389 0.85493,0.445642 0.28837,0.368962 0.31679,0.849367 0.0635,1.072368 -0.12662,0.111453 -0.34484,0.154825 -0.53543,0.106418 z m 3.61056,-0.5703 c -0.2368,-0.08931 -0.38953,-0.350117 -0.40771,-0.696196 -0.0175,-0.332893 0.0975,-0.650595 0.31526,-0.871377 0.155,-0.157109 0.29143,-0.222362 0.46287,-0.221406 0.1554,8.57e-4 0.2425,0.04065 0.35406,0.161659 0.15711,0.170451 0.21563,0.362227 0.20335,0.666413 -0.0129,0.317064 -0.11611,0.564357 -0.32475,0.77747 -0.1762,0.179953 -0.41761,0.253394 -0.60308,0.183447 z m -2.72372,-0.914001 c -0.28071,-0.07001 -0.55608,-0.327942 -0.71527,-0.669981 -0.0928,-0.199385 -0.13084,-0.370899 -0.13141,-0.592484 -4.8e-4,-0.189226 0.003,-0.210602 0.057,-0.323937 0.0611,-0.128929 0.15359,-0.234895 0.25128,-0.287864 0.0425,-0.02305 0.10181,-0.03236 0.20729,-0.03256 0.21192,-3.74e-4 0.34921,0.06903 0.56422,0.285219 0.13294,0.133669 0.17331,0.189034 0.24313,0.33338 0.12451,0.257434 0.16578,0.438852 0.15439,0.678749 -0.0118,0.248313 -0.0478,0.346216 -0.17433,0.473344 -0.13136,0.132018 -0.28679,0.178399 -0.45627,0.136126 z m 1.34448,-0.33375 c -0.10449,-0.0521 -0.23703,-0.189073 -0.30333,-0.313465 -0.23524,-0.441351 -0.14775,-1.149923 0.18327,-1.484447 0.12016,-0.121424 0.2344,-0.17719 0.38254,-0.186711 0.0967,-0.0062 0.13122,4.82e-4 0.21575,0.04183 0.26202,0.128199 0.42247,0.467877 0.42246,0.894362 -10e-6,0.308998 -0.063,0.54765 -0.20191,0.764778 -0.17389,0.271827 -0.4763,0.394586 -0.69878,0.28365 z m 5.62588,-2.94634 c -1.06138,-0.756071 -2.27549,-1.134106 -3.64218,-1.134106 -1.75927,-0.0073 -3.26413,0.618034 -4.52188,1.868359 -1.250321,1.257742 -1.875628,2.762611 -1.868356,4.521878 -0.0073,1.751996 0.618035,3.256865 1.868356,4.500062 1.25775,1.243197 2.76261,1.868357 4.52188,1.875631 1.46124,-0.0073 2.74807,-0.436071 3.86021,-1.301233 1.4176,1.432287 2.4573,2.522757 3.10414,3.25701 0.53062,0.610617 1.27956,0.799561 2.24625,0.559708 1.0253,-0.247126 1.87577,-0.879562 2.5517,-1.897305 -0.57411,-0.690616 -1.57018,-1.75214 -3.00232,-3.184283 0.41425,-0.83607 1.77381,-2.573521 4.09294,-5.22704 0.67607,-0.777889 1.01759,-1.519414 1.02501,-2.239121 0.007,-0.596072 -0.21818,-1.134107 -0.67607,-1.613815 -1.57018,-1.64305 -3.59112,-3.656718 -6.06311,-6.041293 -0.90851,-0.1744 -1.69382,-0.08727 -2.35534,0.26909 -0.80684,0.407126 -1.53382,1.228506 -2.18094,2.457157 0.5888,0.603344 1.27229,1.330324 2.06472,2.18094 z m 1.53381,-4.878097 c 0.55258,-0.327126 1.06138,-0.399853 1.53411,-0.218036 1.78094,1.635633 3.41671,3.264138 4.90704,4.870679 -0.98153,0.181818 -1.85396,0.857889 -2.60989,2.021086 -2.46443,-2.609884 -4.1437,-4.318244 -5.02355,-5.125224 0.21077,-0.690616 0.60349,-1.206687 1.19229,-1.548505 z m 1.19956,10.134228 c -0.007,-1.722904 -0.60334,-3.205954 -1.8029,-4.449151 l 0.93061,-1.105016 3.60566,3.743845 c 0.6688,-0.821379 1.30851,-1.548505 1.91927,-2.180939 0.23273,-0.254545 0.47986,-0.399854 0.7488,-0.428945 0.23971,-0.02909 0.45062,0.03636 0.63243,0.188945 0.17441,0.145454 0.26909,0.341672 0.29091,0.588799 0.0289,0.276217 -0.0512,0.545307 -0.23272,0.814252 -0.45789,0.64698 -1.21425,1.584869 -2.26822,2.827919 -0.93061,1.097743 -1.67214,2.071849 -2.22472,2.929738 -0.89396,1.388652 -1.30108,2.624429 -1.23578,3.707627 l -2.09381,-2.275485 c 1.1488,-1.220943 1.72334,-2.675047 1.73047,-4.361589 z m 1.59941,7.800563 c -0.37076,-0.37091 -0.29061,-1.373962 0.25455,-3.002613 l 2.14457,2.224577 c -1.14152,0.981524 -1.94123,1.235924 -2.39912,0.778036 z" style="opacity:1;vector-effect:none;fill:#3d3d8b;fill-opacity:1;stroke-width:0.01841747;stroke-linecap:butt;stroke-linejoin:miter;stroke-miterlimit:4;stroke-dasharray:none;stroke-dashoffset:0;stroke-opacity:1" id="path3909-1" />
  </g>
</svg>
